<?xml version="1.0" encoding="UTF-8" standalone="no"?>
<svg
   width="432"
   height="324"
   viewBox="0 0 432 324"
   version="1.1"
   xml:space="preserve"
   style="clip-rule:evenodd;fill-rule:evenodd;stroke-linejoin:round;stroke-miterlimit:1.41421"
   id="svg6"
   sodipodi:docname="brivo-logo.svg"
   inkscape:version="1.3 (0e150ed6c4, 2023-07-21)"
   xmlns:inkscape="http://www.inkscape.org/namespaces/inkscape"
   xmlns:sodipodi="http://sodipodi.sourceforge.net/DTD/sodipodi-0.dtd"
   xmlns="http://www.w3.org/2000/svg"
   xmlns:svg="http://www.w3.org/2000/svg"><defs
     id="defs6" /><sodipodi:namedview
     id="namedview6"
     pagecolor="#ffffff"
     bordercolor="#000000"
     borderopacity="0.25"
     inkscape:showpageshadow="2"
     inkscape:pageopacity="0.0"
     inkscape:pagecheckerboard="0"
     inkscape:deskcolor="#d1d1d1"
     inkscape:zoom="1.6682578"
     inkscape:cx="93.810443"
     inkscape:cy="223.88627"
     inkscape:window-width="1920"
     inkscape:window-height="1111"
     inkscape:window-x="-9"
     inkscape:window-y="-9"
     inkscape:window-maximized="1"
     inkscape:current-layer="svg6" /><g
     id="g6"
     transform="translate(6.7525,109.429)"><rect
       x="259.36301"
       y="36.618999"
       width="11.811"
       height="51.145"
       style="fill:#6c6e70;fill-rule:nonzero"
       id="rect1" /><path
       d="m 289.612,36.618 24.099,51.145 h 11.809 l 24.382,-51.145 h -12.953 l -17.143,37.907 -17.24,-37.907 z"
       style="fill:#6c6e70;fill-rule:nonzero"
       id="path1" /><path
       d="m 125.902,87.763 h 11.619 v -6.571 c 2.477,2.571 8.572,8.286 20.287,8.286 14.477,0 26.954,-10.286 26.954,-27.62 0,-15.525 -10.572,-26.954 -27.43,-26.954 -9.81,0 -14.573,3.429 -19.621,7.048 v -23.43 h -11.809 z m 11.809,-35.716 c 3.62,-2.952 8.478,-7.048 17.05,-7.048 9.048,0 18.001,5.715 18.001,17.24 0,11.238 -8.477,17.143 -17.62,17.143 -8.097,0 -12.858,-3.906 -17.431,-7.428 z"
       style="fill:#6c6e70;fill-rule:nonzero"
       id="path2" /><path
       d="m 389.825,89.478 c 14.002,0 28.67,-6.953 28.67,-27.335 0,-13.715 -8.287,-27.239 -28.67,-27.239 -20.382,0 -28.668,13.524 -28.668,27.239 0,20.382 14.667,27.335 28.668,27.335 z m -0.226,-9.768 c -10.57,0 -16.663,-6.571 -16.663,-17.425 0,-11.999 7.617,-16.951 16.663,-16.951 8.951,0 16.664,4.952 16.664,16.951 0,10.854 -6.094,17.425 -16.664,17.425 z"
       style="fill:#6c6e70;fill-rule:nonzero"
       id="path3" /><path
       d="m 203.714,87.763 h 11.81 V 60.62 c 0.096,-3.62 0.096,-13.621 15.145,-13.715 3.904,0 6.096,0.667 7.238,0.952 V 35.095 c -1.238,-0.191 -2.476,-0.191 -4.191,-0.191 -10.191,0 -15.334,5.142 -17.906,9.333 h -0.286 v -7.619 h -11.81 z"
       style="fill:#6c6e70;fill-rule:nonzero"
       id="path4" /><path
       d="m 11.683,52.583 c 0,22.47 18.216,40.686 40.687,40.686 22.47,0 40.685,-18.216 40.685,-40.686 0,-22.47 -18.215,-40.686 -40.685,-40.686 -22.471,0 -40.687,18.216 -40.687,40.686 z m 93.176,-0.012 C 104.859,81.527 81.385,105 52.428,105 23.473,105 0,81.527 0,52.571 0,23.615 23.473,0.142 52.428,0.142 c 28.957,0 52.431,23.473 52.431,52.429 z"
       style="fill:#739dd2;fill-rule:nonzero"
       id="path5" /><path
       d="m 45.197,64.218 c 0,12.054 9.772,21.826 21.826,21.826 12.054,0 21.825,-9.772 21.825,-21.826 0,-12.053 -9.771,-21.825 -21.825,-21.825 -12.054,0 -21.826,9.772 -21.826,21.825 z m 55.632,0 c 0,18.67 -15.135,33.805 -33.806,33.805 -18.67,0 -33.805,-15.135 -33.805,-33.805 0,-18.67 15.135,-33.805 33.805,-33.805 18.671,0 33.806,15.135 33.806,33.805 z"
       style="fill:#739dd2;fill-rule:nonzero"
       id="path6" /></g></svg>
