<?xml version="1.0" encoding="UTF-8" standalone="no"?>
<svg
   width="320"
   height="240"
   viewBox="0 0 319.99999 240"
   fill="none"
   version="1.1"
   id="svg12"
   sodipodi:docname="noiseaware-logo.svg"
   inkscape:version="1.3 (0e150ed6c4, 2023-07-21)"
   xmlns:inkscape="http://www.inkscape.org/namespaces/inkscape"
   xmlns:sodipodi="http://sodipodi.sourceforge.net/DTD/sodipodi-0.dtd"
   xmlns="http://www.w3.org/2000/svg"
   xmlns:svg="http://www.w3.org/2000/svg">
  <defs
     id="defs12" />
  <sodipodi:namedview
     id="namedview12"
     pagecolor="#ffffff"
     bordercolor="#000000"
     borderopacity="0.25"
     inkscape:showpageshadow="2"
     inkscape:pageopacity="0.0"
     inkscape:pagecheckerboard="0"
     inkscape:deskcolor="#d1d1d1"
     inkscape:zoom="1.6037234"
     inkscape:cx="42.089552"
     inkscape:cy="186.7529"
     inkscape:window-width="1920"
     inkscape:window-height="1111"
     inkscape:window-x="-9"
     inkscape:window-y="-9"
     inkscape:window-maximized="1"
     inkscape:current-layer="svg12" />
  <rect
     style="display:inline;fill:#456e6c;fill-opacity:1;stroke-width:1.9467"
     id="rect12"
     width="320"
     height="240"
     x="0"
     y="0" />
  <g
     id="g12"
     transform="translate(11.97711,87.813156)">
    <path
       d="m 94.059191,23.250444 v 24.5155 h -0.1153 l -21.9658,-27.7804 v 21.1933 c 0,3.2649 1.153,5.2124 3.2862,6.1289 v 0.1145 h -7.7832 v -0.1145 c 2.0755,-0.8592 3.2863,-2.8067 3.2863,-6.1289 v -18.5585 c 0,-2.8639 -0.4036,-4.58231 -2.4791,-5.4415 v -0.11456 h 6.4571 l 18.1031,23.19806 v -17.0119 c 0,-3.2649 -1.153,-5.21241 -3.2862,-6.12888 v -0.05728 h 7.7832 v 0.11456 c -2.1332,0.85919 -3.2863,2.8067 -3.2863,6.0716 z"
       fill="#f0e9dc"
       id="path1"
       style="display:inline" />
    <path
       d="m 98.325791,36.825944 c 0,-6.3008 4.439299,-10.9404 10.666099,-10.9404 6.226,0 10.666,4.6396 10.666,10.9404 0,6.3007 -4.44,10.9403 -10.666,10.9403 -6.2268,0.0573 -10.666099,-4.5823 -10.666099,-10.9403 z m 17.065099,0 c 0,-5.6134 -2.363,-10.0812 -6.342,-10.0812 -4.0353,0 -6.3414,4.4678 -6.3414,10.0812 0,5.6133 2.3638,10.0811 6.3414,10.0811 3.979,0.0573 6.342,-4.4105 6.342,-10.0811 z"
       fill="#f0e9dc"
       id="path2"
       style="display:inline" />
    <path
       d="m 127.32489,42.668744 c 0,2.864 0.404,3.7804 2.479,4.6396 v 0.1146 h -8.821 v -0.1146 c 2.076,-0.8592 2.479,-1.7756 2.479,-4.6396 v -11.6277 c 0,-2.463 -0.634,-3.7804 -2.709,-4.6396 v -0.0573 h 6.515 v 16.3246 z m -2.191,-26.40573 c 1.557,0 2.768,1.14559 2.768,2.69213 0,1.4893 -1.153,2.6921 -2.768,2.6921 -1.614,0 -2.767,-1.1456 -2.767,-2.6921 0.058,-1.54654 1.211,-2.69213 2.767,-2.69213 z"
       fill="#f0e9dc"
       id="path3"
       style="display:inline" />
    <path
       d="m 135.04989,30.468044 c 0,2.1194 0.807,3.1504 5.247,4.1814 5.823,1.3174 7.783,3.2649 7.783,6.759 0,4.2959 -3.863,6.3579 -7.899,6.3579 -2.998,0 -4.842,-1.1455 -6.169,-1.1455 -0.807,0 -1.326,0.5155 -1.902,1.1455 l -0.461,-8.2482 h 0.115 c 1.903,4.5251 4.439,7.3891 8.475,7.3891 2.594,0 4.728,-1.6039 4.728,-4.3533 0,-2.5775 -2.364,-3.4367 -6.169,-4.3532 -5.016,-1.1456 -6.803,-3.2649 -6.803,-6.4725 0,-3.8377 3.401,-5.8998 7.149,-5.8998 2.709,0 4.035,1.1456 5.534,1.1456 0.807,0 1.442,-0.5155 2.191,-1.1456 v 7.1599 h -0.115 c -1.557,-3.4367 -4.151,-6.3007 -7.61,-6.3007 -2.652,0.0573 -4.094,1.8329 -4.094,3.7804 z"
       fill="#f0e9dc"
       id="path4"
       style="display:inline" />
    <path
       d="m 169.41289,35.967144 h -15.278 c 0,5.7852 2.94,9.852 7.783,9.852 3.286,0 6.053,-1.7183 7.322,-5.3269 l 0.288,0.1145 c -0.807,4.6396 -4.209,7.2172 -8.994,7.2172 -5.592,0 -10.262,-4.0095 -10.262,-10.9403 0,-6.4726 4.67,-10.9404 10.147,-10.9404 6.226,-0.0572 8.994,4.1241 8.994,10.0239 z m -4.151,-0.9165 c 0,-4.4105 -0.808,-8.3054 -4.901,-8.3054 -3.113,0 -5.881,3.2076 -6.111,8.3054 z"
       fill="#f0e9dc"
       id="path5"
       style="display:inline" />
    <path
       d="m 177.77189,47.365744 h -6.861 v -0.0573 c 1.672,-0.8592 2.825,-2.9212 4.093,-5.7852 l 10.954,-24.91648 h 0.116 l 11.819,25.89018 c 1.326,2.8067 1.845,3.895 3.516,4.7542 v 0.1146 h -9.051 v -0.0573 c 1.268,-0.5155 2.018,-1.2601 2.018,-2.2912 0,-0.6873 -0.289,-1.5465 -0.75,-2.5775 l -2.306,-5.1552 h -13.087 l -1.845,4.1241 c -0.404,0.9165 -0.75,1.8902 -0.75,2.9786 0,1.3174 0.865,2.4057 2.076,2.9212 v 0.0573 z m 0.922,-11.2268 h 12.05 l -6.169,-13.747 z"
       fill="#f0e9dc"
       id="path6"
       style="display:inline" />
    <path
       d="m 212.76689,33.103044 -6.284,14.7207 h -0.115 l -7.207,-16.7828 c -1.326,-3.0358 -1.903,-3.6086 -3.286,-4.5823 v -0.1146 h 7.783 v 0.1146 c -1.095,0.4582 -1.326,1.031 -1.326,1.8902 0,0.6301 0.404,1.6611 0.749,2.6921 l 4.555,10.9404 4.382,-10.4249 -0.231,-0.5155 c -1.326,-3.0358 -1.902,-3.6086 -3.286,-4.5823 v -0.1146 h 7.668 v 0.1146 c -1.038,0.4582 -1.211,0.9737 -1.211,1.8329 0,0.6301 0.404,1.6611 0.749,2.6921 l 4.209,10.9404 4.209,-10.5967 c 0.288,-0.8019 0.461,-1.5465 0.461,-2.2339 0,-1.2028 -0.576,-2.2339 -1.845,-2.6348 v -0.1146 h 6.169 v 0.1146 c -1.441,0.9737 -2.075,1.6611 -3.344,4.6969 l -6.688,16.6682 h -0.115 z"
       fill="#f0e9dc"
       id="path7"
       style="display:inline" />
    <path
       d="m 250.01089,45.875844 c -0.749,1.0883 -2.133,1.833 -3.92,1.833 -2.364,0 -3.69,-1.4893 -3.863,-3.8377 0,-0.1719 -0.115,-1.6039 -0.115,-2.0621 -0.462,3.0358 -3.632,5.8425 -7.265,5.8425 -3.459,0 -6.169,-1.7184 -6.169,-5.3843 0,-4.6396 4.901,-5.7279 10.09,-6.6443 l 3.286,-0.6301 v -2.4057 c 0,-3.1504 -1.499,-5.8425 -5.073,-5.8425 -3.229,0 -4.44,1.6611 -4.44,3.5513 0,1.3174 0.807,2.2912 2.018,2.2912 0.173,0 0.404,-0.0573 0.577,-0.1146 -0.231,1.3174 -1.211,1.9475 -2.479,1.9475 -1.788,0 -3.171,-1.1456 -3.171,-3.1504 0,-2.8067 3.055,-5.3269 7.552,-5.3269 5.65,0 9.052,2.1766 9.052,7.3317 0,3.8377 -0.116,6.7017 -0.116,9.3365 0,2.4057 0.923,3.6086 2.768,3.6086 0.461,0 0.98,-0.1146 1.326,-0.3437 z m -10.839,-9.451 c -4.324,0.8019 -6.399,2.4057 -6.399,5.4415 0,2.8639 1.614,3.895 3.69,3.895 2.767,0 5.477,-2.2912 5.534,-6.3007 l 0.116,-3.6086 z"
       fill="#f0e9dc"
       id="path8"
       style="display:inline" />
    <path
       d="m 265.23189,30.296044 c 0,-1.1456 -0.865,-2.0047 -2.364,-2.0047 -2.94,0 -5.535,4.2959 -5.535,9.3365 v 5.0405 c 0,2.864 1.326,3.895 3.806,4.6397 v 0.1145 h -10.09 v -0.1145 c 2.076,-0.8592 2.479,-1.7757 2.479,-4.6397 v -11.6276 c 0,-2.463 -0.634,-3.7805 -2.709,-4.6397 v -0.0572 h 6.514 v 7.2744 c 0.981,-4.0668 3.229,-7.7327 7.092,-7.7327 2.306,0 4.035,1.3747 4.035,3.4368 0,2.4057 -1.729,3.4367 -3.113,3.4367 -0.634,0 -1.211,-0.2864 -1.441,-0.5728 0.807,-0.2863 1.326,-0.9737 1.326,-1.8902 z"
       fill="#f0e9dc"
       id="path9"
       style="display:inline" />
    <path
       d="m 288.52389,35.967144 h -15.278 c 0,5.7852 2.94,9.852 7.783,9.852 3.286,0 6.054,-1.7183 7.322,-5.3269 l 0.288,0.1145 c -0.807,4.6396 -4.208,7.2172 -8.994,7.2172 -5.592,0 -10.262,-4.0095 -10.262,-10.9403 0,-6.4726 4.67,-10.9404 10.147,-10.9404 6.284,-0.0572 8.994,4.1241 8.994,10.0239 z m -4.151,-0.9165 c 0,-4.4105 -0.807,-8.3054 -4.901,-8.3054 -3.113,0 -5.88,3.2076 -6.111,8.3054 z"
       fill="#f0e9dc"
       id="path10"
       style="display:inline" />
    <path
       d="m 31.563591,56.186844 c -13.3179,0 -24.1567001,-10.7685 -24.1567001,-24 0,-13.2315 10.8388001,-24.0000001 24.1567001,-24.0000001 13.3179,0 24.1567,10.7685001 24.1567,24.0000001 0,13.2315 -10.8388,24 -24.1567,24 z m 0,-46.5680201 c -12.5684,0 -22.7730201,10.1384201 -22.7730201,22.6253201 0,12.4869 10.2046201,22.6253 22.7730201,22.6253 12.5684,0 22.773,-10.1384 22.773,-22.6253 0,-12.4869 -10.2046,-22.6253201 -22.773,-22.6253201 z"
       fill="#f0e9dc"
       id="path11"
       style="display:inline" />
    <path
       d="m 26.894291,41.981044 c -0.0577,1.2029 0.3459,2.2912 1.0377,3.1504 l 2.4215,3.4367 c 0,0.0573 0.0576,0.0573 0.1153,0.0573 0.1729,0 0.2306,-0.1718 0.1729,-0.2864 -0.4612,-0.6873 -0.6918,-1.4893 -0.6918,-2.3485 0,-2.2911 1.9026,-4.1813 4.2087,-4.2386 1.3837,-0.0573 2.652,0.6301 3.4592,1.6611 0.0576,0.0573 0.1729,0.1145 0.2306,0.0573 0.1153,-0.1146 0.1153,-0.2292 0.0576,-0.2864 l -4.2663,-6.1289 c -1.2107,-1.7184 -1.2107,-4.0096 0.0577,-5.7279 l 4.2663,-5.728 c 0.2306,-0.2864 0.2306,-0.6873 0,-0.9737 l -7.6102,-10.71122 c -0.1153,-0.17184 -0.3459,-0.22912 -0.5189,-0.11456 -0.173,0.11456 -0.2306,0.34368 -0.1153,0.51552 l 2.3638,3.32219 c 1.2107,1.71837 1.2107,4.00957 -0.0577,5.72797 l -4.2087,5.7852 c -0.2306,0.2864 -0.2306,0.6873 0,0.9737 l 5.4771,7.79 c -0.5765,-0.2291 -1.2107,-0.3437 -1.9026,-0.3437 -2.4214,0.1146 -4.3816,2.0048 -4.4969,4.4105 z"
       fill="#f0e9dc"
       id="path12"
       style="display:inline" />
  </g>
</svg>
