<?xml version="1.0" encoding="UTF-8" standalone="no"?>
<svg
   id="Layer_1"
   data-name="Layer 1"
   width="120"
   height="90"
   viewBox="0 0 120 90"
   version="1.1"
   sodipodi:docname="nuki-logo.svg"
   inkscape:version="1.3 (0e150ed6c4, 2023-07-21)"
   xmlns:inkscape="http://www.inkscape.org/namespaces/inkscape"
   xmlns:sodipodi="http://sodipodi.sourceforge.net/DTD/sodipodi-0.dtd"
   xmlns="http://www.w3.org/2000/svg"
   xmlns:svg="http://www.w3.org/2000/svg"
   xmlns:rdf="http://www.w3.org/1999/02/22-rdf-syntax-ns#"
   xmlns:cc="http://creativecommons.org/ns#"
   xmlns:dc="http://purl.org/dc/elements/1.1/">
  <sodipodi:namedview
     id="namedview5"
     pagecolor="#ffffff"
     bordercolor="#000000"
     borderopacity="0.25"
     inkscape:showpageshadow="2"
     inkscape:pageopacity="0.0"
     inkscape:pagecheckerboard="0"
     inkscape:deskcolor="#d1d1d1"
     inkscape:zoom="7.5284446"
     inkscape:cx="72.060038"
     inkscape:cy="37.125863"
     inkscape:window-width="1920"
     inkscape:window-height="1111"
     inkscape:window-x="-9"
     inkscape:window-y="-9"
     inkscape:window-maximized="1"
     inkscape:current-layer="Layer_1" />
  <defs
     id="defs1">
    <style
       id="style1">.cls-1{fill:#fdca40;}</style>
  </defs>
  <title
     id="title1">nuki-logo</title>
  <rect
     style="fill:#ffffff"
     id="rect5"
     width="120"
     height="90"
     x="0"
     y="0" />
  <g
     id="g5"
     transform="translate(3.88,19.999971)">
    <path
       d="M 0,21.24 A 0.77,0.77 0 0 1 0.78,20.5 h 1 l 16.37,15.73 v 0 -14.54 A 0.78,0.78 0 0 1 19,20.91 h 4.92 a 0.81,0.81 0 0 1 0.78,0.78 V 49.26 A 0.77,0.77 0 0 1 23.92,50 H 23.23 A 1.21,1.21 0 0 1 22.7,49.8 L 6.51,33.53 v 0 15.28 A 0.78,0.78 0 0 1 5.73,49.59 H 0.82 A 0.81,0.81 0 0 1 0,48.81 Z"
       id="path1" />
    <path
       d="m 36.54,21.69 a 0.81,0.81 0 0 1 0.78,-0.78 h 5 a 0.78,0.78 0 0 1 0.78,0.78 v 16.59 a 5.08,5.08 0 1 0 10.16,0 V 21.69 a 0.78,0.78 0 0 1 0.78,-0.78 h 5 a 0.81,0.81 0 0 1 0.78,0.78 v 16.92 a 11.68,11.68 0 0 1 -23.35,0 V 21.69 Z"
       id="path2" />
    <path
       d="m 71.86,21.9 a 1,1 0 0 1 1,-1 h 4.79 a 1,1 0 0 1 1,1 v 10.77 l 9.1,-11.35 a 1.22,1.22 0 0 1 0.78,-0.41 h 5.16 a 1,1 0 0 1 0.74,1.52 l -9.59,12 L 95.25,48 a 1,1 0 0 1 -0.78,1.52 H 88.82 A 1.12,1.12 0 0 1 88.08,49.23 L 78.62,36.4 v 12.21 a 1,1 0 0 1 -1,1 h -4.78 a 1,1 0 0 1 -1,-1 V 21.9 Z"
       id="path3" />
    <path
       d="m 104.8,21.69 a 0.81,0.81 0 0 1 0.78,-0.78 h 4.92 a 0.81,0.81 0 0 1 0.78,0.78 v 27.12 a 0.81,0.81 0 0 1 -0.78,0.78 h -4.92 a 0.81,0.81 0 0 1 -0.78,-0.78 z"
       id="path4" />
    <path
       class="cls-1"
       d="M 103.83,4.27 A 4.16,4.16 0 0 1 108,0 a 4.24,4.24 0 1 1 0,8.48 4.14,4.14 0 0 1 -4.17,-4.21 z"
       id="path5" />
  </g>
  <metadata
     id="metadata5">
    <rdf:RDF>
      <cc:Work
         rdf:about="">
        <dc:title>nuki-logo</dc:title>
      </cc:Work>
    </rdf:RDF>
  </metadata>
</svg>
