<?xml version="1.0" encoding="UTF-8" standalone="no"?>
<svg
   width="352"
   height="264"
   viewBox="0 0 352 264"
   version="1.1"
   id="svg1"
   sodipodi:docname="tedee-logo.svg"
   inkscape:version="1.3 (0e150ed6c4, 2023-07-21)"
   xmlns:inkscape="http://www.inkscape.org/namespaces/inkscape"
   xmlns:sodipodi="http://sodipodi.sourceforge.net/DTD/sodipodi-0.dtd"
   xmlns:xlink="http://www.w3.org/1999/xlink"
   xmlns="http://www.w3.org/2000/svg"
   xmlns:svg="http://www.w3.org/2000/svg"
   xmlns:rdf="http://www.w3.org/1999/02/22-rdf-syntax-ns#"
   xmlns:cc="http://creativecommons.org/ns#"
   xmlns:dc="http://purl.org/dc/elements/1.1/">
  <sodipodi:namedview
     id="namedview1"
     pagecolor="#ffffff"
     bordercolor="#000000"
     borderopacity="0.25"
     inkscape:showpageshadow="2"
     inkscape:pageopacity="0.0"
     inkscape:pagecheckerboard="0"
     inkscape:deskcolor="#d1d1d1"
     inkscape:zoom="1.2725792"
     inkscape:cx="89.188946"
     inkscape:cy="138.69471"
     inkscape:window-width="1920"
     inkscape:window-height="1111"
     inkscape:window-x="-9"
     inkscape:window-y="-9"
     inkscape:window-maximized="1"
     inkscape:current-layer="svg1" />
  <title
     id="title1">FullLogo</title>
  <defs
     id="defs1">
    <rect
       id="path-1"
       x="0"
       y="0"
       width="332"
       height="91" />
  </defs>
  <g
     id="Brandbook"
     stroke="none"
     stroke-width="1"
     fill="none"
     fill-rule="evenodd"
     transform="translate(10.273196,86.327072)">
    <g
       id="Guideliness_1"
       transform="translate(-864,-633)">
      <g
         id="FullLogo"
         transform="translate(864,633)">
        <mask
           id="mask-2"
           fill="#ffffff">
          <use
             xlink:href="#path-1"
             id="use1" />
        </mask>
        <g
           id="Rectangle" />
        <g
           id="logo_blue"
           mask="url(#mask-2)"
           fill="#3bd5fd"
           fill-rule="nonzero">
          <g
             id="Layer_1">
            <path
               d="m 44.164286,76.588707 c -0.0039,1.266994 -0.302987,2.515484 -0.873364,3.645549 -1.659539,3.431729 -4.401788,6.216258 -7.800067,7.920329 -3.450001,1.760074 -7.587019,2.64011 -12.411055,2.64011 -7.245812,0 -12.901597,-2.137205 -16.9673541,-6.411616 C 2.0466888,80.108669 0.00920688,74.157972 0,66.530988 V 15.741335 c 0,-2.346764 0.60875873,-4.168798 1.8262762,-5.466103 1.2175175,-1.2973052 2.9176595,-1.9476222 5.100426,-1.9509515 2.1790837,0 3.8773848,0.6503171 5.0949018,1.9509515 1.217518,1.300634 1.826276,3.122668 1.826276,5.466103 v 13.325952 h 20.70995 c 2.162512,0 3.847554,0.564865 5.055128,1.694597 1.207574,1.129732 1.809704,2.701886 1.80639,4.716464 0.084,1.718308 -0.574201,3.389463 -1.805837,4.584957 -1.207574,1.133061 -2.892617,1.699591 -5.055128,1.699591 h -20.70995 v 25.145409 c 0,3.603748 0.873364,6.369445 2.620093,8.297091 1.746729,1.927647 4.15893,2.89147 7.236605,2.89147 3.61984,0.102225 7.010422,-1.774475 8.857937,-4.902903 0.552349,-0.889897 1.297925,-1.642783 2.180925,-2.202311 0.922754,-0.55616 1.983401,-0.838569 3.059262,-0.81456 1.670187,-0.05582 3.299018,0.528359 4.556299,1.634115 1.203155,1.089411 1.804732,2.681911 1.804732,4.7775 z"
               id="Path_607" />
            <path
               d="m 107.84807,80.391287 c -2.79677,3.382293 -6.37333,6.027595 -10.419052,7.706146 -4.488,1.855226 -9.30518,2.77278 -14.157783,2.696707 C 78.696477,90.85214 74.1499,90.067143 69.856998,88.478079 66.009001,87.045864 62.487397,84.850253 59.502023,82.022073 56.615212,79.237683 54.359862,75.860947 52.889644,72.121939 51.31,68.049972 50.527292,63.71013 50.584426,59.340323 c -0.05182,-4.390688 0.730761,-8.750995 2.30577,-12.847091 1.4539,-3.750352 3.687679,-7.145958 6.552167,-9.960061 2.920576,-2.81657 6.377984,-5.010875 10.164392,-6.451013 4.163699,-1.586396 8.58684,-2.373711 13.039701,-2.321054 4.134816,-0.03336 8.239403,0.709996 12.102256,2.191768 3.581813,1.364794 6.881168,3.383791 9.731298,5.954951 2.71878,2.472134 4.9045,5.477553 6.42235,8.830884 1.54435,3.402877 2.33284,7.102609 2.31075,10.842317 v 0.626458 c 0.1,2.172775 -0.71507,4.287489 -2.24556,5.826219 -1.58319,1.490851 -3.69544,2.281755 -5.86386,2.195653 H 65.057637 c 0.828251,4.431256 2.865917,7.919959 6.112999,10.466109 3.247081,2.546151 7.280982,3.819411 12.101703,3.819781 2.942731,0.06505 5.862439,-0.534545 8.543614,-1.754525 2.262207,-1.024196 4.28273,-2.518174 5.928493,-4.383536 1.229785,-1.58225 3.116924,-2.506897 5.115344,-2.506384 1.7528,-0.09201 3.46644,0.542197 4.7408,1.754524 1.19054,1.239565 1.82205,2.915844 1.74673,4.636561 -0.005,1.510005 -0.53518,2.97078 -1.49925,4.129403 z M 82.647008,40.04 c -4.093424,-0.100604 -8.105949,1.155385 -11.417817,3.57397 -3.164249,2.321994 -5.362295,5.736936 -6.171554,9.588292 h 34.807521 c -0.79241,-3.810477 -2.916593,-7.210166 -5.988153,-9.583854 -3.078412,-2.387825 -6.821744,-3.580073 -11.229997,-3.576743 z"
               id="Path_608" />
            <path
               d="m 178.65522,0.55487805 c 2.1824,0 3.90243,0.67029265 5.16009,2.01087805 1.25766,1.3405854 1.88814,3.1420894 1.89146,5.4045122 V 82.625226 c 0,2.346024 -0.63049,4.167504 -1.89146,5.464439 -1.26098,1.296935 -2.98101,1.947067 -5.16009,1.950396 -1.86397,0.09251 -3.67893,-0.616815 -4.9905,-1.950396 -1.23077,-1.300265 -1.83842,-3.121744 -1.82296,-5.464439 v -0.628677 h -0.23477 c -2.34027,2.857652 -5.33746,5.100585 -8.73309,6.535353 -3.79679,1.567059 -7.87272,2.336937 -11.97686,2.262238 -4.10284,0.05929 -8.17571,-0.710015 -11.97686,-2.262238 -3.49632,-1.451596 -6.64337,-3.637065 -9.23026,-6.409951 -2.6393,-2.861622 -4.65811,-6.242692 -5.9285,-9.928988 -1.42194,-4.163886 -2.11733,-8.543149 -2.05552,-12.94475 -0.0583,-4.421331 0.63714,-8.820073 2.05608,-13.005786 1.25979,-3.710713 3.27931,-7.115279 5.92849,-9.994464 2.58737,-2.77308 5.735,-4.958561 9.23192,-6.409951 3.80109,-1.551595 7.87377,-2.320329 11.97631,-2.260573 4.10413,-0.0747 8.18007,0.69518 11.97685,2.262238 3.39466,1.436475 6.39148,3.679125 8.7331,6.535353 h 0.34415 l -0.095,-28.4042068 c 0,-2.2624228 0.60766,-4.0639269 1.82296,-5.4045122 1.28435,-1.3706728 3.10292,-2.10601392 4.97448,-2.01143295 z M 153.58011,78.10075 c 2.52826,0.02878 5.03758,-0.44101 7.38575,-1.382756 2.19089,-0.875805 4.17472,-2.203122 5.82354,-3.896354 1.64633,-1.708466 2.92384,-3.739908 3.75254,-5.967158 0.9005,-2.432631 1.34712,-5.011087 1.3175,-7.606269 0.0251,-2.614568 -0.42226,-5.21202 -1.32027,-7.666195 -1.62287,-4.538544 -5.11191,-8.155953 -9.57662,-9.928988 -2.34878,-0.939632 -4.85768,-1.409346 -7.38576,-1.382756 -5.32305,0 -9.66298,1.738618 -13.01981,5.215854 -3.35683,3.477236 -5.02033,8.064228 -4.9905,13.760976 0,5.613886 1.6635,10.160187 4.9905,13.638902 3.327,3.478716 7.66804,5.216963 13.02313,5.214744 z"
               id="Path_609" />
            <path
               d="m 254.96882,80.391287 c -2.79878,3.37999 -6.37505,6.024365 -10.41961,7.704481 -4.48811,1.854838 -9.30521,2.772376 -14.15778,2.696708 -4.57482,0.05879 -9.12154,-0.726231 -13.41424,-2.316061 -3.84861,-1.430955 -7.37045,-3.626715 -10.35497,-6.456006 -2.88838,-2.783071 -5.14397,-6.160173 -6.61238,-9.900135 -1.58232,-4.071416 -2.36531,-8.411932 -2.30577,-12.78217 -0.0543,-4.390893 0.7284,-8.751661 2.30577,-12.847092 1.45197,-3.751354 3.686,-7.147346 6.55216,-9.960061 2.91973,-2.81766 6.37737,-5.012114 10.1644,-6.451012 4.16357,-1.586855 8.5868,-2.374186 13.0397,-2.321055 4.13569,-0.03293 8.24106,0.711187 12.10446,2.193988 3.58181,1.364794 6.88117,3.383791 9.7313,5.954951 2.71626,2.474154 4.90126,5.479095 6.42125,8.830884 1.54207,3.40363 2.33046,7.102855 2.31074,10.842317 v 0.626458 c 0.1,2.172775 -0.71507,4.287489 -2.24556,5.826219 -1.58319,1.490851 -3.69543,2.281755 -5.86386,2.195653 h -40.04991 c 0.82825,4.431256 2.86591,7.919959 6.11299,10.466109 3.24709,2.546151 7.28099,3.819411 12.10171,3.819781 2.94268,0.06456 5.86228,-0.535015 8.54361,-1.754525 2.26145,-1.02549 4.28173,-2.519281 5.92849,-4.383536 1.22979,-1.58225 3.11692,-2.506897 5.11535,-2.506384 1.75279,-0.09201 3.46644,0.542197 4.7408,1.754524 1.19054,1.239565 1.82205,2.915844 1.74673,4.636561 -0.003,1.511836 -0.5324,2.974989 -1.49704,4.135506 z M 229.76775,40.04 c -4.09342,-0.100604 -8.10595,1.155385 -11.41781,3.57397 -3.16627,2.320384 -5.3653,5.735951 -6.17322,9.588292 h 34.80753 c -0.79237,-3.810496 -2.91656,-7.2102 -5.98816,-9.583854 -3.0773,-2.387825 -6.82008,-3.580073 -11.22834,-3.576743 z"
               id="Path_610" />
            <path
               d="m 326.082,80.391287 c -2.79627,3.380515 -6.37108,6.025073 -10.41463,7.704481 -4.48986,1.854833 -9.30858,2.772357 -14.16276,2.696708 -4.57317,0.05841 -9.11819,-0.726614 -13.40926,-2.316061 -3.84861,-1.430969 -7.37045,-3.626727 -10.35498,-6.456006 -2.88839,-2.78306 -5.14398,-6.160165 -6.61238,-9.900135 -1.58389,-4.071112 -2.36856,-8.411615 -2.31074,-12.78217 -0.0526,-4.391207 0.73178,-8.751966 2.31074,-12.847092 1.45217,-3.750045 3.68427,-7.14567 6.5472,-9.960061 2.92269,-2.816838 6.38213,-5.011124 10.17047,-6.451012 4.16338,-1.587544 8.58674,-2.374898 13.0397,-2.321055 4.13573,-0.03328 8.24116,0.710845 12.10446,2.193988 3.57857,1.365258 6.87484,3.383641 9.72247,5.953286 2.71856,2.473905 4.90566,5.479274 6.42732,8.831994 1.54053,3.403961 2.32723,7.103206 2.30577,10.842317 v 0.626458 c 0.1,2.172775 -0.71507,4.287489 -2.24556,5.826219 -1.58156,1.490241 -3.69204,2.281154 -5.85889,2.195653 h -40.04991 c 0.83303,4.430146 2.86996,7.918479 6.11078,10.465 3.24082,2.54652 7.27473,3.81978 12.10171,3.81978 2.94429,0.06463 5.86553,-0.534932 8.54858,-1.754524 2.25998,-1.025572 4.2786,-2.519402 5.92352,-4.383537 1.22979,-1.58225 3.11692,-2.506897 5.11534,-2.506384 1.7528,-0.09201 3.46645,0.542197 4.74081,1.754525 1.19257,1.238273 1.82442,2.915463 1.74673,4.636561 -0.003,1.511827 -0.53244,2.974965 -1.49704,4.135506 z M 300.88646,40.041665 c -4.09181,-0.100081 -8.1026,1.15591 -11.41284,3.573969 -3.16601,2.320799 -5.36637,5.735076 -6.17819,9.586628 h 34.80752 c -0.78825,-3.812159 -2.91327,-7.213195 -5.98815,-9.583854 -3.07731,-2.387825 -6.82009,-3.580073 -11.22834,-3.576743 z"
               id="Path_611" />
          </g>
        </g>
      </g>
    </g>
  </g>
  <metadata
     id="metadata1">
    <rdf:RDF>
      <cc:Work
         rdf:about="">
        <dc:title>FullLogo</dc:title>
      </cc:Work>
    </rdf:RDF>
  </metadata>
</svg>
