<svg width="32" height="32" viewBox="0 0 32 32" fill="none" xmlns="http://www.w3.org/2000/svg">
<g clip-path="url(#clip0_2241_101423)">
<path d="M0 6C0 2.68629 2.68629 0 6 0H26C29.3137 0 32 2.68629 32 6V26C32 29.3137 29.3137 32 26 32H6C2.68629 32 0 29.3137 0 26V6Z" fill="#090A0B"/>
<path d="M12.759 6.69739C15.5205 4.98287 19.1181 5.42028 21.4042 7.74167L21.5138 7.85538L21.5142 7.85603L23.5184 9.98798L23.5663 10.0403C24.5516 11.1442 24.3358 12.8658 23.0828 13.6657L23.083 13.6659L22.8098 13.843L23.1572 14.2137L23.1583 14.2148L23.2701 14.3378C25.5712 16.9459 25.0249 21.0155 22.0813 22.9231L22.0815 22.9233L18.2842 25.3979L18.2818 25.3994C18.0713 25.5355 17.8548 25.6567 17.6336 25.7631L17.5385 25.8079C15.2414 26.8635 12.4941 26.337 10.7378 24.4489L8.0507 21.5698C7.02941 20.4831 7.24639 18.7235 8.51011 17.9166L9.34149 17.3771L8.75491 16.7488C7.6585 15.5771 7.21483 14.0213 7.31871 12.5854C7.42205 11.1572 8.07758 9.75445 9.29744 8.95846L12.6256 6.78246L12.626 6.78203L12.759 6.69739ZM9.32283 19.1694C9.32068 19.1708 9.31848 19.1722 9.31632 19.1735C8.85256 19.4676 8.7633 20.1019 9.10538 20.5095L9.13989 20.5481L9.14249 20.5509L11.8304 23.4309L11.8313 23.4318L11.8936 23.4973C13.2057 24.8524 15.2098 25.2218 16.8903 24.4619C18.0314 23.832 18.5575 22.3601 17.9148 21.1282L16.2109 22.2223C16.2069 22.2249 16.2029 22.2275 16.1989 22.2299C15.3765 22.7361 14.3246 22.6325 13.6271 21.9628L13.5607 21.8962L13.555 21.8903L10.3767 18.4858L9.32283 19.1694ZM13.2514 12.7464C13.2486 12.7483 13.2458 12.7503 13.243 12.7521C12.9428 12.9432 12.8878 13.376 13.1334 13.6405L18.1881 19.0579L18.1909 19.0609C18.1964 19.0669 18.2013 19.0733 18.2067 19.0793L18.2072 19.0791L18.2354 19.1117L18.6117 19.547C19.4922 20.5065 19.7923 21.65 19.6603 22.7184L21.2662 21.672L21.2679 21.6709L21.3704 21.6026C23.4927 20.1416 23.8326 17.1248 22.0668 15.2341L21.5366 14.6685L20.3523 15.4365C20.3511 15.4373 20.3499 15.4381 20.3487 15.4389C19.5356 15.9593 18.4795 15.8437 17.7866 15.1783L17.7206 15.1123L17.7161 15.1073L14.6464 11.8319L13.2514 12.7464ZM13.3771 10.5118C12.6001 9.65561 11.2429 9.47353 10.1138 10.2091C9.37173 10.6932 8.88627 11.6153 8.80829 12.6933C8.73328 13.7302 9.04507 14.8249 9.774 15.6501L9.84583 15.7291L9.8467 15.7297L14.641 20.8651L14.6798 20.9025C14.8796 21.0788 15.1699 21.1079 15.4135 20.9593L16.9808 19.953L12.0403 14.6581L12.039 14.6568C11.1775 13.729 11.3327 12.2049 12.4329 11.4975L13.5947 10.7356L13.3955 10.5314C13.3893 10.525 13.3831 10.5185 13.3771 10.5118ZM20.4261 8.8786C18.6031 6.94334 15.6545 6.58904 13.4422 8.03268L12.8181 8.44067C13.4381 8.63707 14.0103 8.99057 14.4747 9.49904L15.2968 10.3421L15.307 10.3528L18.8009 14.0811L18.8406 14.1193C19.0448 14.2995 19.3304 14.3175 19.5435 14.1811L22.2705 12.4129L22.2768 12.4088C22.7476 12.1102 22.8417 11.4465 22.4326 11.0134L22.4313 11.0121L20.4261 8.8786Z" fill="#EEEFF2"/>
</g>
<defs>
<clipPath id="clip0_2241_101423">
<rect width="32" height="32" fill="white"/>
</clipPath>
</defs>
</svg>
