<svg width="72" height="20" viewBox="0 0 72 20" fill="none" xmlns="http://www.w3.org/2000/svg">
  <path d="M6.61951 1.58312C9.23049 -0.0861119 12.6857 0.295052 14.8684 2.46633L14.9714 2.57121L14.9718 2.5718L16.814 4.49172C17.8317 5.54896 17.6323 7.24571 16.3789 8.02453L16.2822 8.08566L16.4813 8.29387L16.4823 8.29484C18.7767 10.7017 18.2893 14.5587 15.466 16.3515L11.9779 18.5788C11.9771 18.5794 11.9762 18.5799 11.9753 18.5804C11.7484 18.7241 11.5139 18.8499 11.274 18.9579C9.10629 19.9339 6.51432 19.4469 4.85763 17.7021L2.39242 15.114C1.38833 14.0706 1.60019 12.3797 2.83897 11.604L3.45557 11.212L3.03633 10.7724C1.99801 9.68517 1.57991 8.24408 1.67794 6.91652C1.77233 5.63824 2.35636 4.36981 3.45477 3.6132L3.56263 3.54152L6.61891 1.58371L6.61951 1.58312ZM3.74543 12.9734C3.74306 12.9749 3.74064 12.9764 3.73826 12.9778C3.37649 13.2026 3.31697 13.6958 3.60429 13.9945C3.60526 13.9955 3.60632 13.9966 3.60728 13.9976L6.07647 16.5896L6.07747 16.5905C7.2371 17.8118 9.04239 18.1532 10.5526 17.4862C11.4869 16.9768 11.935 15.8285 11.4965 14.8255L10.0723 15.7214C10.0679 15.7242 10.0634 15.7269 10.059 15.7296C9.22118 16.2347 8.14022 16.1123 7.45221 15.4062C7.45009 15.404 7.44792 15.4017 7.44583 15.3995L4.61023 12.4237L3.74543 12.9734ZM7.35513 7.1923C7.35198 7.19432 7.34873 7.19638 7.34556 7.19836C7.14985 7.32042 7.10904 7.60307 7.27219 7.77707L11.9167 12.6538C11.9177 12.6549 11.9189 12.6561 11.9199 12.6571C11.9351 12.6732 11.9497 12.6897 11.964 12.7064L12.3049 13.0931C13.0645 13.903 13.3722 14.853 13.3329 15.7653L14.5566 14.9843L14.5588 14.9829C16.5154 13.7416 16.8501 11.0719 15.2649 9.4089L14.8622 8.98801L13.8774 9.61379C13.876 9.61463 13.8747 9.61549 13.8734 9.61633C13.0422 10.1375 11.9556 10.0005 11.2736 9.30051C11.2719 9.29871 11.2702 9.29685 11.2684 9.29504L8.53311 6.43547L7.35513 7.1923ZM7.28097 5.15734C6.62029 4.44408 5.45547 4.282 4.47347 4.90812L4.47327 4.90793C4.47302 4.90809 4.47272 4.90816 4.47247 4.90832L4.47267 4.90851C3.83788 5.31412 3.4085 6.09783 3.33935 7.0343C3.27296 7.93337 3.54952 8.87923 4.19019 9.58976L4.25338 9.65773L4.25418 9.65851L8.6591 14.2812C8.79425 14.4181 9.00541 14.4483 9.18579 14.3396L10.4728 13.53L6.05434 8.89055L6.05295 8.88918C5.2012 7.9905 5.35328 6.51411 6.44169 5.82746L7.35991 5.23742L7.3015 5.17863C7.29456 5.17166 7.28764 5.16455 7.28097 5.15734ZM13.7586 3.68996C12.1324 1.99829 9.50243 1.68908 7.52996 2.95012L7.20322 3.1593C7.68513 3.35256 8.12903 3.6487 8.50161 4.0468L9.25855 4.80734L9.26992 4.81906L12.4787 8.17355L12.5058 8.19914C12.6447 8.31941 12.8341 8.32883 12.9733 8.24269L15.4796 6.6507L15.4868 6.64621C15.8396 6.42691 15.9151 5.93606 15.6016 5.61086L15.6002 5.60949L13.7586 3.68996Z" fill="#1A1A1A" />
  <path d="M54.3769 15.1844V7.12282C54.3769 6.5907 54.371 6.09997 54.3592 5.65063H57.88V6.51975H57.8978C58.5718 5.7334 59.5473 5.34022 60.8244 5.34022C62.0779 5.34022 63.015 5.79548 63.6358 6.706H63.6713C64.4931 5.79548 65.6194 5.34022 67.0502 5.34022C68.2445 5.34022 69.1669 5.68906 69.8172 6.38672C70.4676 7.07848 70.7928 8.04221 70.7928 9.27791V15.1844H67.2542V9.96966C67.2542 9.43754 67.13 9.01776 66.8817 8.71031C66.6393 8.40287 66.2846 8.24914 65.8175 8.24914C65.3504 8.24914 64.9868 8.39991 64.7266 8.70144C64.4724 9.00298 64.3453 9.36659 64.3453 9.79229V15.1844H60.8244V9.96966C60.8244 9.43754 60.7003 9.01776 60.4519 8.71031C60.2095 8.40287 59.8548 8.24914 59.3877 8.24914C58.9206 8.24914 58.557 8.39991 58.2969 8.70144C58.0426 9.00298 57.9155 9.36659 57.9155 9.79229V15.1844H54.3769Z" fill="#1A1A1A" />
  <path d="M43.0867 12.3731C43.0867 11.2852 43.4799 10.4722 44.2663 9.93419C45.0526 9.40207 46.3977 9.13601 48.3015 9.13601C48.6622 9.13601 49.014 9.14192 49.3569 9.15375V9.06506C49.3569 8.64528 49.1943 8.34965 48.8691 8.17819C48.5498 8.00673 48.0709 7.921 47.4324 7.921C46.9298 7.921 46.4361 7.99195 45.9513 8.13385C45.4842 8.25801 45.1058 8.42947 44.8161 8.64823L43.5923 6.26256C44.1303 5.97877 44.7836 5.74818 45.5522 5.57081C46.3149 5.39344 47.1042 5.30475 47.9202 5.30475C49.2445 5.30475 50.2792 5.49099 51.0242 5.86347C52.1771 6.46063 52.7536 7.51009 52.7536 9.01185V13.5526C52.7536 14.2798 52.7713 14.8238 52.8068 15.1844H49.6584V14.4749H49.6229C49.351 14.7646 48.943 15.0071 48.3991 15.2022C47.8551 15.3973 47.2727 15.4948 46.6519 15.4948C45.5641 15.4948 44.6979 15.214 44.0534 14.6523C43.409 14.0906 43.0867 13.3309 43.0867 12.3731ZM49.3037 12.4085V11.1847C49.1736 11.1728 48.9312 11.1669 48.5764 11.1669C47.7783 11.1669 47.2018 11.2467 46.847 11.4064C46.4982 11.5601 46.3238 11.8262 46.3238 12.2046C46.3238 12.5416 46.4391 12.8047 46.6697 12.9939C46.9062 13.1831 47.2314 13.2777 47.6452 13.2777C48.0295 13.2777 48.3665 13.1979 48.6563 13.0382C48.946 12.8786 49.1618 12.6687 49.3037 12.4085Z" fill="#1A1A1A" />
  <path d="M32.1336 10.351C32.1218 9.39911 32.3405 8.53885 32.7899 7.77023C33.2392 6.99571 33.8689 6.39264 34.6789 5.96103C35.4948 5.52351 36.4024 5.31066 37.4016 5.32249C38.9329 5.30475 40.1538 5.76592 41.0643 6.706C41.9807 7.64016 42.433 8.85517 42.4212 10.351C42.4212 10.4456 42.4064 10.7501 42.3769 11.2645H35.4061C35.4712 11.7552 35.6988 12.1454 36.089 12.4351C36.4792 12.7189 36.9847 12.8608 37.6055 12.8608C38.7053 12.8608 39.6365 12.3997 40.3992 11.4773L42.5454 13.2777C42.0133 13.8985 41.3186 14.4247 40.4613 14.8563C39.6099 15.282 38.6136 15.4948 37.4725 15.4948C36.4378 15.5067 35.5125 15.2997 34.6966 14.874C33.8866 14.4483 33.254 13.8423 32.7987 13.056C32.3435 12.2696 32.1218 11.368 32.1336 10.351ZM35.4593 9.15375H39.0955C39.0659 8.68075 38.8915 8.30827 38.5722 8.03629C38.253 7.7525 37.8391 7.6106 37.3306 7.6106C36.8044 7.6106 36.3728 7.74954 36.0358 8.02743C35.7047 8.30531 35.5125 8.68075 35.4593 9.15375Z" fill="#1A1A1A" />
  <path d="M22.9808 15.1844V12.6214H27.0692C27.3412 12.6214 27.5363 12.5918 27.6546 12.5327C27.7728 12.4736 27.8319 12.3642 27.8319 12.2046C27.8083 12.0272 27.7492 11.9119 27.6546 11.8587C27.5659 11.8055 27.3353 11.7404 26.9628 11.6636C26.8327 11.6458 26.6968 11.6192 26.5549 11.5838L25.668 11.4064C24.7102 11.2054 24.0155 10.8861 23.5839 10.4486C23.1582 10.011 22.9453 9.37251 22.9453 8.53294C22.9453 7.59286 23.2409 6.8745 23.8322 6.37786C24.1455 6.11771 24.5505 5.93147 25.0472 5.81913C25.5497 5.70679 26.1972 5.65063 26.9894 5.65063H30.8473L30.7143 8.21367H27.2643C27.0101 8.21367 26.8298 8.24027 26.7234 8.29349C26.6228 8.34079 26.5726 8.43538 26.5726 8.57728C26.5962 8.74283 26.6524 8.85221 26.7411 8.90542C26.8357 8.95272 27.084 9.01776 27.4861 9.10053L27.7521 9.15375L28.6656 9.35772C29.6293 9.57057 30.3418 9.88689 30.8029 10.3067C31.2641 10.7205 31.4947 11.3354 31.4947 12.1514C31.4947 13.1683 31.1754 13.9192 30.5369 14.404C29.857 14.9243 28.6952 15.1844 27.0515 15.1844H22.9808Z" fill="#1A1A1A" />
</svg>
